<svg width="137" height="154" viewBox="0 0 137 154" fill="none" xmlns="http://www.w3.org/2000/svg">
<path d="M6.71433 42.9777H37.8618C38.8132 32.4298 41.7501 22.9573 45.9692 15.6358C51.5534 5.95649 59.4954 0 68.4715 0C77.4476 0 85.3482 5.99785 90.9738 15.6358C95.193 22.9159 98.1299 32.4298 99.0812 42.9777H130.187C133.869 42.9777 137.178 45.9973 136.888 49.6788L130.642 136.834C129.856 147.754 122.99 154 113.021 154H23.922C12.8363 154 6.96251 146.265 6.30068 136.834L0.013279 49.7201C-0.234908 46.0387 3.03289 42.9777 6.71433 42.9777ZM45.6383 42.9777H91.222C90.312 33.8362 87.7887 25.7287 84.19 19.524C80.0536 12.2853 74.428 7.77652 68.4715 7.77652C62.4737 7.77652 56.8895 12.2853 52.6703 19.5654C49.0716 25.7287 46.5897 33.8775 45.6383 42.9777Z" fill="#EA501F"/>
<path d="M45.8455 123.432C44.3977 122.439 44.0255 120.495 45.0182 119.047C46.011 117.599 47.9551 117.227 49.4028 118.22C50.3129 118.84 51.2642 119.461 52.2984 120.081C59.5785 124.507 66.2796 126.699 71.8638 126.699C76.9102 126.699 81.0053 124.797 83.6113 120.95C83.7767 120.66 83.9422 120.495 83.9836 120.371C84.7281 119.171 85.2659 117.889 85.6381 116.648C86.3827 114.083 86.2586 111.436 85.2245 109.037C84.1077 106.514 81.9567 104.073 78.6062 102.046C76.3725 100.681 73.6011 99.4816 70.2506 98.5716C61.7295 96.1724 55.4421 92.7805 52.0502 88.2305C48.3274 83.2253 48.0378 77.1861 52.0088 69.8646C54.6561 65.025 60.0749 62.0054 66.9414 61.4676C72.8565 61.0126 79.9712 62.419 87.21 66.1004C88.7818 66.8864 89.4023 68.7891 88.575 70.361C87.7477 71.9328 85.8863 72.5533 84.3145 71.726C78.1512 68.5823 72.2774 67.3827 67.3964 67.755C62.7222 68.1273 59.1649 69.9473 57.593 72.8429C54.9457 77.6825 54.987 81.488 57.138 84.3836C59.6199 87.7341 64.7904 90.34 71.9879 92.3669C75.8761 93.4837 79.1853 94.8901 81.9153 96.5447C86.4241 99.2748 89.4437 102.708 91.0569 106.431C92.7115 110.278 92.9183 114.331 91.8014 118.302C91.3051 120.081 90.5192 121.86 89.4437 123.597C89.1955 123.969 89.03 124.259 88.9059 124.466C85.059 130.133 79.1439 132.945 71.9465 132.987C65.2041 132.987 57.3448 130.505 49.0719 125.458C48.0378 124.879 46.9623 124.218 45.8455 123.432Z" fill="white"/>
</svg>
