<?xml version="1.0" encoding="UTF-8"?>
<svg xmlns="http://www.w3.org/2000/svg" id="Layer_1" data-name="Layer 1" version="1.1" viewBox="0 0 879.1 879">
  <defs>
    <style>
      .cls-1 {
        fill: #00efe8;
      }

      .cls-1, .cls-2, .cls-3, .cls-4 {
        fill-rule: evenodd;
        stroke-width: 0px;
      }

      .cls-2 {
        fill: #fff;
      }

      .cls-3 {
        fill: #000;
      }

      .cls-4 {
        fill: #ec2b89;
      }
    </style>
  </defs>
  <path class="cls-3" d="M346.1,169.6c0-125.1,179.8-122.3,179.8,0h-179.8ZM259.5,169.6c-146.5.4-136.2,40.1-151.9,167.8-11.5,94-21.3,190.9-35,284.7-43.3,297,66.2,253.5,366.7,253.5s258.5,11.5,306.1-13.5c95.2-49.9,68.9-151.3,57.2-236.7-12.9-94.3-21.2-191.1-35-284.7-19.1-129.8-2.1-171.1-155.3-171.1,0-227-352.9-225.2-352.9,0Z"></path>
  <path class="cls-4" d="M635.8,430.9c-55.2,0-99.9-44.7-99.9-99.9h-74.9v289.9c0,33.7-27.3,61-61,61s-61-27.3-61-61,27.3-61,61-61,13.5,1,19.2,2.7v-76.3c-6.3-.9-12.7-1.3-19.2-1.3-75.1,0-135.9,60.9-135.9,135.9s60.9,135.9,135.9,135.9,135.9-60.9,135.9-135.9v-153.4c27.2,22.2,62,35.5,99.9,35.5v-72.1h0Z"></path>
  <path class="cls-1" d="M614.6,409.7c-55.2,0-99.9-44.7-99.9-99.9h-74.9v289.9c0,33.7-27.3,61-61,61s-61-27.3-61-61,27.3-61,61-61,13.5,1,19.2,2.8v-76.3c-6.3-.9-12.7-1.3-19.2-1.3-75.1,0-135.9,60.9-135.9,135.9s60.9,135.9,135.9,135.9,135.9-60.9,135.9-135.9v-153.4c27.2,22.2,62,35.5,99.9,35.5v-72.1h0Z"></path>
  <path class="cls-2" d="M614.6,428.6c-24.1-5.2-45-19.2-59.2-38.4-19.2-14.2-33.2-35.1-38.4-59.2h-56v289.9c0,33.7-27.3,61-61,61s-41.8-12-52.4-29.8c-17.9-10.6-29.8-30.1-29.8-52.4,0-33.7,27.3-61,61-61s13.5,1,19.2,2.8v-56.4c-74.2,1.1-133.9,61.5-133.9,135.9s11.2,61.6,29.8,84.9c23.3,18.6,52.8,29.8,84.9,29.8,75.1,0,135.9-60.9,135.9-135.9v-153.4c27.2,22.2,62,35.5,99.9,35.5v-53.2Z"></path>
</svg>
