<svg xmlns="http://www.w3.org/2000/svg" data-name="Layer 1" viewBox="0 0 651.254 410"><path d="M624.617 345.681a216 216 0 0 1-10.085 59.68c-.14.448-.288.89-.435 1.338H576.46q.06-.605.12-1.338c2.51-28.85 16.978-204.434-.32-234.46 1.512 2.435 51.273 83.114 48.356 174.78" fill="#f0f0f0"/><path d="M621.792 405.36q-.473.675-.977 1.339h-28.233q.32-.575.75-1.338c4.664-8.419 18.47-33.588 31.284-59.68 13.773-28.039 26.407-57.142 25.343-67.676.328 2.376 9.857 74.797-28.167 127.356M74.994 56.9c-17.299 30.027-2.83 205.611-.321 234.46q.06.735.12 1.339H37.157c-.147-.448-.294-.89-.435-1.338a216 216 0 0 1-10.085-59.68C23.72 140.015 73.481 59.336 74.994 56.901" fill="#f0f0f0"/><path d="M1.295 164.005c-1.064 10.534 11.57 39.637 25.343 67.676 12.815 26.092 26.62 51.261 31.285 59.68q.43.764.749 1.338H30.439a46 46 0 0 1-.978-1.338C-8.562 238.8.967 166.38 1.295 164.005" fill="#f0f0f0"/><path d="M646.21 32.992H14.786a.916.916 0 0 1 0-1.833H646.21a.916.916 0 1 1 0 1.833" fill="#cacaca"/><circle cx="35.412" cy="10.081" r="10.081" fill="#3f3d56"/><circle cx="70.236" cy="10.081" r="10.081" fill="#3f3d56"/><circle cx="105.061" cy="10.081" r="10.081" fill="#3f3d56"/><path d="M625.345 6.166h-24.743a1.833 1.833 0 1 1 0-3.666h24.743a1.833 1.833 0 1 1 0 3.666m0 6.874h-24.743a1.833 1.833 0 1 1 0-3.666h24.743a1.833 1.833 0 1 1 0 3.665m0 6.874h-24.743a1.833 1.833 0 1 1 0-3.666h24.743a1.833 1.833 0 1 1 0 3.666" fill="#3f3d56"/><path d="M613.914 405.9h-238a7.01 7.01 0 0 1-7-7v-310a7.01 7.01 0 0 1 7-7h238a7.01 7.01 0 0 1 7 7v310a7.01 7.01 0 0 1-7 7m-238-322a5.006 5.006 0 0 0-5 5v310a5.006 5.006 0 0 0 5 5h238a5.006 5.006 0 0 0 5-5v-310a5.006 5.006 0 0 0-5-5Z" fill="#e6e6e6"/><path d="M541.127 217.699h-101a7.01 7.01 0 0 1-7-7v-79a7.01 7.01 0 0 1 7-7h101a7.01 7.01 0 0 1 7 7v79a7.01 7.01 0 0 1-7 7" fill="#e6e6e6"/><path d="M540.914 349.9h-101a7.01 7.01 0 0 1-7-7v-79a7.01 7.01 0 0 1 7-7h101a7.01 7.01 0 0 1 7 7v79a7.01 7.01 0 0 1-7 7m-101-91a5.006 5.006 0 0 0-5 5v79a5.006 5.006 0 0 0 5 5h101a5.006 5.006 0 0 0 5-5v-79a5.006 5.006 0 0 0-5-5Z" fill="#3f3d56"/><path d="M568.914 371.9h-101a7.01 7.01 0 0 1-7-7v-79a7.01 7.01 0 0 1 7-7h101a7.01 7.01 0 0 1 7 7v79a7.01 7.01 0 0 1-7 7" fill="#6c63ff"/><path d="M529.746 348.769H479.04a1 1 0 0 1-.19-.015l23.981-41.539a1.68 1.68 0 0 1 2.923 0l16.094 27.876.771 1.334Z" fill="#fff"/><path opacity=".2" style="isolation:isolate" d="M529.745 348.769h-17.311l8.498-12.344.612-.889.305-.445.771 1.334z"/><path d="M557.978 348.769h-43.856l8.498-12.344.612-.89 11.074-16.086a2.24 2.24 0 0 1 3.326-.2 2 2 0 0 1 .16.2Z" fill="#fff"/><circle cx="555.924" cy="299.542" r="7.512" fill="#fff"/><path d="M272.548 405.81h-238a7.01 7.01 0 0 1-7-7v-79a7.01 7.01 0 0 1 7-7h238a7.01 7.01 0 0 1 7 7v79a7.01 7.01 0 0 1-7 7" fill="#e6e6e6"/><path d="M271.548 292.81h-238a7.01 7.01 0 0 1-7-7v-193a7.01 7.01 0 0 1 7-7h238a7.01 7.01 0 0 1 7 7v193a7.01 7.01 0 0 1-7 7m-238-205a5.006 5.006 0 0 0-5 5v193a5.006 5.006 0 0 0 5 5h238a5.006 5.006 0 0 0 5-5v-193a5.006 5.006 0 0 0-5-5Z" fill="#3f3d56"/><path d="M310.548 327.81h-238a7.01 7.01 0 0 1-7-7v-193a7.01 7.01 0 0 1 7-7h238a7.01 7.01 0 0 1 7 7v193a7.01 7.01 0 0 1-7 7" fill="#6c63ff"/><path d="M218.701 280.309H97.196a2.5 2.5 0 0 1-.454-.036l57.466-99.54a4.024 4.024 0 0 1 7.004 0l38.568 66.799 1.847 3.196Z" fill="#fff"/><path opacity=".2" style="isolation:isolate" d="M218.701 280.309h-41.485l20.365-29.581 1.466-2.131.733-1.065 1.848 3.196z"/><path d="M286.355 280.309H181.262l20.365-29.58 1.466-2.132 26.537-38.549a5.37 5.37 0 0 1 7.97-.476 5 5 0 0 1 .383.476Z" fill="#fff"/><circle cx="279.148" cy="160.309" r="18" fill="#fff"/></svg>